<?xml version="1.0" encoding="UTF-8" standalone="no"?>
<!-- Created with Inkscape (http://www.inkscape.org/) -->

<svg
   width="87.849709mm"
   height="80.438042mm"
   viewBox="0 0 87.849709 80.438042"
   version="1.1"
   id="svg1"
   inkscape:export-filename="logo.svg"
   inkscape:export-xdpi="96"
   inkscape:export-ydpi="96"
   inkscape:version="1.3 (0e150ed, 2023-07-21)"
   sodipodi:docname="drawing.svg"
   xmlns:inkscape="http://www.inkscape.org/namespaces/inkscape"
   xmlns:sodipodi="http://sodipodi.sourceforge.net/DTD/sodipodi-0.dtd"
   xmlns="http://www.w3.org/2000/svg"
   xmlns:svg="http://www.w3.org/2000/svg">
  <sodipodi:namedview
     id="namedview1"
     pagecolor="#ffffff"
     bordercolor="#000000"
     borderopacity="0.25"
     inkscape:showpageshadow="2"
     inkscape:pageopacity="0.0"
     inkscape:pagecheckerboard="0"
     inkscape:deskcolor="#d1d1d1"
     inkscape:document-units="mm"
     inkscape:export-bgcolor="#ffffff00"
     inkscape:zoom="1.2593707"
     inkscape:cx="229.08267"
     inkscape:cy="352.16002"
     inkscape:window-width="1920"
     inkscape:window-height="1080"
     inkscape:window-x="0"
     inkscape:window-y="0"
     inkscape:window-maximized="0"
     inkscape:current-layer="layer1" />
  <defs
     id="defs1" />
  <g
     inkscape:label="Layer 1"
     inkscape:groupmode="layer"
     id="layer1"
     transform="translate(-65.812791,-71.417982)">
    <g
       id="g8"
       transform="translate(37.378228,-42.961608)">
      <g
         id="g2"
         inkscape:export-filename="Desktop/dark-logo.png"
         inkscape:export-xdpi="96"
         inkscape:export-ydpi="96">
        <g
           id="g1">
          <path
             style="fill:#938581;fill-opacity:1;stroke-width:0.295735"
             d="m 28.78951,114.41425 c -1.975241,18.17839 4.937651,80.40338 4.937651,80.40338 l 82.557119,-0.008 -0.27635,-2.32732 C 113.62366,158.72949 76.032377,171.98109 51.989657,172.26583 L 41.015685,114.41764 Z"
             id="path4"
             sodipodi:nodetypes="ccccccc" />
          <path
             style="fill:#c5d5e4;fill-opacity:1;stroke-width:0.194207"
             d="m 48.19608,114.37959 c -1.467227,10.55371 8.047316,53.69208 8.047316,53.69208 0.05409,0.18932 21.170139,-2.3063 34.13249,-2.63434 9.690054,-0.24523 17.263264,2.58773 17.263264,2.58773 0.99779,-18.86094 -20.296791,-12.96666 -37.830201,-13.04613 l -8.495228,-40.59925 z"
             id="path10"
             sodipodi:nodetypes="ccscccc" />
        </g>
      </g>
    </g>
    <path
       style="fill:#030d12;fill-opacity:0;stroke-width:0.295894"
       d="m 105.79017,67.71811 c -18.628007,16.89044 12.97099,82.0159 12.97099,82.0159 l 83.38927,0.42974 -0.8716,-10.33809 c -2.38427,-33.78885 -40.21245,-12.26747 -64.25517,-11.98242 l -13.25965,-60.0896 z"
       id="path7"
       sodipodi:nodetypes="ccccccc" />
  </g>
</svg>
